<?xml version="1.0" encoding="UTF-8" standalone="no"?>
<svg
   xmlns:dc="http://purl.org/dc/elements/1.1/"
   xmlns:cc="http://creativecommons.org/ns#"
   xmlns:rdf="http://www.w3.org/1999/02/22-rdf-syntax-ns#"
   xmlns:svg="http://www.w3.org/2000/svg"
   xmlns="http://www.w3.org/2000/svg"
   xmlns:xlink="http://www.w3.org/1999/xlink"
   xmlns:sodipodi="http://sodipodi.sourceforge.net/DTD/sodipodi-0.dtd"
   xmlns:inkscape="http://www.inkscape.org/namespaces/inkscape"
   width="565"
   height="465"
   viewBox="0 0 565 465"
   id="svg2"
   version="1.1"
   inkscape:version="0.47 r22583"
   sodipodi:docname="Invsqrt0-10000.svg">
  <metadata
     id="metadata152">
    <rdf:RDF>
      <cc:Work
         rdf:about="">
        <dc:format>image/svg+xml</dc:format>
        <dc:type
           rdf:resource="http://purl.org/dc/dcmitype/StillImage" />
      </cc:Work>
    </rdf:RDF>
  </metadata>
  <sodipodi:namedview
     pagecolor="#ffffff"
     bordercolor="#666666"
     borderopacity="1"
     objecttolerance="10"
     gridtolerance="10"
     guidetolerance="10"
     inkscape:pageopacity="0"
     inkscape:pageshadow="2"
     inkscape:window-width="1280"
     inkscape:window-height="946"
     id="namedview150"
     showgrid="false"
     inkscape:zoom="0.98333333"
     inkscape:cx="169.03963"
     inkscape:cy="147.54282"
     inkscape:window-x="0"
     inkscape:window-y="51"
     inkscape:window-maximized="1"
     inkscape:current-layer="svg2" />
  <desc
     id="desc4">Produced by GNUPLOT 4.2 patchlevel 5  </desc>
  <defs
     id="defs6">
    <inkscape:perspective
       sodipodi:type="inkscape:persp3d"
       inkscape:vp_x="0 : 240 : 1"
       inkscape:vp_y="0 : 1000 : 0"
       inkscape:vp_z="600 : 240 : 1"
       inkscape:persp3d-origin="300 : 160 : 1"
       id="perspective154" />
    <circle
       id="gpDot"
       r="0.5"
       cx="0"
       cy="0"
       sodipodi:cx="0"
       sodipodi:cy="0"
       sodipodi:rx="0.5"
       sodipodi:ry="0.5"
       style="stroke-width:0.5" />
    <path
       id="gpPt0"
       d="M -1,0 H 1 M 0,-1 v 2"
       style="stroke:currentColor;stroke-width:0.222" />
    <path
       id="gpPt1"
       d="M -1,-1 1,1 M 1,-1 -1,1"
       style="stroke:currentColor;stroke-width:0.222" />
    <path
       id="gpPt2"
       d="M -1,0 1,0 M 0,-1 0,1 m -1,-2 2,2 m -2,0 2,-2"
       style="stroke:currentColor;stroke-width:0.222" />
    <rect
       id="gpPt3"
       x="-1"
       y="-1"
       width="2"
       height="2"
       style="stroke:currentColor;stroke-width:0.222" />
    <rect
       id="gpPt4"
       x="-1"
       y="-1"
       width="2"
       height="2"
       style="fill:currentColor;stroke:currentColor;stroke-width:0.222" />
    <circle
       id="gpPt5"
       cx="0"
       cy="0"
       r="1"
       sodipodi:cx="0"
       sodipodi:cy="0"
       sodipodi:rx="1"
       sodipodi:ry="1"
       style="stroke:currentColor;stroke-width:0.222" />
    <use
       xlink:href="#gpPt5"
       id="gpPt6"
       style="fill:currentColor;stroke:none"
       x="0"
       y="0"
       width="600"
       height="480" />
    <path
       id="gpPt7"
       d="m 0,-1.33 -1.33,2 2.66,0 z"
       style="stroke:currentColor;stroke-width:0.222" />
    <use
       xlink:href="#gpPt7"
       id="gpPt8"
       style="fill:currentColor;stroke:none"
       x="0"
       y="0"
       width="600"
       height="480" />
    <use
       xlink:href="#gpPt7"
       id="gpPt9"
       transform="scale(-1,-1)"
       style="stroke:currentColor"
       x="0"
       y="0"
       width="600"
       height="480" />
    <use
       xlink:href="#gpPt9"
       id="gpPt10"
       style="fill:currentColor;stroke:none"
       x="0"
       y="0"
       width="600"
       height="480" />
    <use
       xlink:href="#gpPt3"
       id="gpPt11"
       transform="matrix(0.70710678,0.70710678,-0.70710678,0.70710678,0,0)"
       style="stroke:currentColor"
       x="0"
       y="0"
       width="600"
       height="480" />
    <use
       xlink:href="#gpPt11"
       id="gpPt12"
       style="fill:currentColor;stroke:none"
       x="0"
       y="0"
       width="600"
       height="480" />
  </defs>
  <g
     style="color:#ffffff;fill:none;stroke:currentColor;stroke-width:1;stroke-linecap:butt;stroke-linejoin:miter"
     id="g22"
     transform="translate(-41.814355,-1.6830994)" />
  <g
     style="color:#000000;fill:none;stroke:currentColor;stroke-width:1;stroke-linecap:butt;stroke-linejoin:miter"
     id="g24"
     transform="translate(-38.081641,-6.0009277)">
    <path
       d="m 95.4,444 9,0 m 474.8,0 -9,0"
       id="path26" />
    <g
       transform="translate(87.1,448.5)"
       style="font-size:15px;text-anchor:end;fill:#000000;stroke:none;font-family:Arial"
       id="g28">
      <text
         id="text30">1e-06</text>
    </g>
    <path
       d="m 95.4,425.6 4.5,0 m 479.3,0 -4.5,0 m -479.3,-24.3 4.5,0 m 479.3,0 -4.5,0 m -479.3,-12.4 4.5,0 m 479.3,0 -4.5,0 m -479.3,-6 9,0 m 474.8,0 -9,0"
       id="path32" />
    <g
       transform="translate(87.1,387.4)"
       style="font-size:15px;text-anchor:end;fill:#000000;stroke:none;font-family:Arial"
       id="g34">
      <text
         id="text36">1e-05</text>
    </g>
    <path
       d="m 95.4,364.6 4.5,0 m 479.3,0 -4.5,0 m -479.3,-24.3 4.5,0 m 479.3,0 -4.5,0 m -479.3,-12.5 4.5,0 m 479.3,0 -4.5,0 m -479.3,-5.9 9,0 m 474.8,0 -9,0"
       id="path38" />
    <g
       transform="translate(87.1,326.4)"
       style="font-size:15px;text-anchor:end;fill:#000000;stroke:none;font-family:Arial"
       id="g40">
      <text
         id="text42">0.0001</text>
    </g>
    <path
       d="m 95.4,303.5 4.5,0 m 479.3,0 -4.5,0 m -479.3,-24.3 4.5,0 m 479.3,0 -4.5,0 m -479.3,-12.5 4.5,0 m 479.3,0 -4.5,0 m -479.3,-5.9 9,0 m 474.8,0 -9,0"
       id="path44" />
    <g
       transform="translate(87.1,265.3)"
       style="font-size:15px;text-anchor:end;fill:#000000;stroke:none;font-family:Arial"
       id="g46">
      <text
         id="text48">0.001</text>
    </g>
    <path
       d="m 95.4,242.4 4.5,0 m 479.3,0 -4.5,0 m -479.3,-24.2 4.5,0 m 479.3,0 -4.5,0 m -479.3,-12.5 4.5,0 m 479.3,0 -4.5,0 m -479.3,-5.9 9,0 m 474.8,0 -9,0"
       id="path50" />
    <g
       transform="translate(87.1,204.3)"
       style="font-size:15px;text-anchor:end;fill:#000000;stroke:none;font-family:Arial"
       id="g52">
      <text
         id="text54">0.01</text>
    </g>
    <path
       d="m 95.4,181.4 4.5,0 m 479.3,0 -4.5,0 m -479.3,-24.3 4.5,0 m 479.3,0 -4.5,0 m -479.3,-12.5 4.5,0 m 479.3,0 -4.5,0 m -479.3,-5.9 9,0 m 474.8,0 -9,0"
       id="path56" />
    <g
       transform="translate(87.1,143.2)"
       style="font-size:15px;text-anchor:end;fill:#000000;stroke:none;font-family:Arial"
       id="g58">
      <text
         id="text60">0.1</text>
    </g>
    <path
       d="m 95.4,120.3 4.5,0 m 479.3,0 -4.5,0 M 95.4,96 l 4.5,0 m 479.3,0 -4.5,0 M 95.4,83.6 l 4.5,0 m 479.3,0 -4.5,0 m -479.3,-5.9 9,0 m 474.8,0 -9,0"
       id="path62" />
    <g
       transform="translate(87.1,82.2)"
       style="font-size:15px;text-anchor:end;fill:#000000;stroke:none;font-family:Arial"
       id="g64">
      <text
         id="text66">1</text>
    </g>
    <path
       d="m 95.4,59.3 4.5,0 m 479.3,0 -4.5,0 M 95.4,35 l 4.5,0 m 479.3,0 -4.5,0 M 95.4,22.5 l 4.5,0 m 479.3,0 -4.5,0 m -479.3,-5.9 9,0 m 474.8,0 -9,0"
       id="path68" />
    <g
       transform="translate(87.1,21.1)"
       style="font-size:15px;text-anchor:end;fill:#000000;stroke:none;font-family:Arial"
       id="g70">
      <text
         id="text72">10</text>
    </g>
    <path
       d="m 95.4,444 0,-9 m 0,-418.4 0,9"
       id="path74" />
    <g
       transform="translate(95.4,466.5)"
       style="font-size:15px;text-anchor:middle;fill:#000000;stroke:none;font-family:Arial"
       id="g76">
      <text
         id="text78">0.01</text>
    </g>
    <path
       d="m 119.7,444 0,-4.5 m 0,-422.9 0,4.5 m 32.1,422.9 0,-4.5 m 0,-422.9 0,4.5 m 16.4,422.9 0,-4.5 m 0,-422.9 0,4.5 m 7.8,422.9 0,-9 m 0,-418.4 0,9"
       id="path80" />
    <g
       transform="translate(176,466.5)"
       style="font-size:15px;text-anchor:middle;fill:#000000;stroke:none;font-family:Arial"
       id="g82">
      <text
         id="text84">0.1</text>
    </g>
    <path
       d="m 200.3,444 0,-4.5 m 0,-422.9 0,4.5 m 32.1,422.9 0,-4.5 m 0,-422.9 0,4.5 m 16.5,422.9 0,-4.5 m 0,-422.9 0,4.5 m 7.8,422.9 0,-9 m 0,-418.4 0,9"
       id="path86" />
    <g
       transform="translate(256.7,466.5)"
       style="font-size:15px;text-anchor:middle;fill:#000000;stroke:none;font-family:Arial"
       id="g88">
      <text
         id="text90">1</text>
    </g>
    <path
       d="m 280.9,444 0,-4.5 m 0,-422.9 0,4.5 M 313,444 l 0,-4.5 m 0,-422.9 0,4.5 m 16.5,422.9 0,-4.5 m 0,-422.9 0,4.5 m 7.8,422.9 0,-9 m 0,-418.4 0,9"
       id="path92" />
    <g
       transform="translate(337.3,466.5)"
       style="font-size:15px;text-anchor:middle;fill:#000000;stroke:none;font-family:Arial"
       id="g94">
      <text
         id="text96">10</text>
    </g>
    <path
       d="m 361.6,444 0,-4.5 m 0,-422.9 0,4.5 m 32.1,422.9 0,-4.5 m 0,-422.9 0,4.5 m 16.4,422.9 0,-4.5 m 0,-422.9 0,4.5 m 7.8,422.9 0,-9 m 0,-418.4 0,9"
       id="path98" />
    <g
       transform="translate(417.9,466.5)"
       style="font-size:15px;text-anchor:middle;fill:#000000;stroke:none;font-family:Arial"
       id="g100">
      <text
         id="text102">100</text>
    </g>
    <path
       d="m 442.2,444 0,-4.5 m 0,-422.9 0,4.5 m 32.1,422.9 0,-4.5 m 0,-422.9 0,4.5 m 16.5,422.9 0,-4.5 m 0,-422.9 0,4.5 m 7.8,422.9 0,-9 m 0,-418.4 0,9"
       id="path104" />
    <g
       transform="translate(498.6,466.5)"
       style="font-size:15px;text-anchor:middle;fill:#000000;stroke:none;font-family:Arial"
       id="g106">
      <text
         id="text108">1000</text>
    </g>
    <path
       d="m 522.8,444 0,-4.5 m 0,-422.9 0,4.5 m 32.1,422.9 0,-4.5 m 0,-422.9 0,4.5 m 16.5,422.9 0,-4.5 m 0,-422.9 0,4.5 m 7.8,422.9 0,-9 m 0,-418.4 0,9"
       id="path110" />
    <g
       transform="translate(579.2,466.5)"
       style="font-size:15px;text-anchor:middle;fill:#000000;stroke:none;font-family:Arial"
       id="g112">
      <text
         id="text114">10000</text>
    </g>
    <path
       d="m 95.4,16.6 0,427.4 483.8,0 0,-427.4 -483.8,0 z"
       id="path116" />
  </g>
  <g
     style="color:#ff0000;fill:none;stroke:currentColor;stroke-width:1;stroke-linecap:butt;stroke-linejoin:miter"
     id="g118"
     transform="translate(-41.814355,-1.6830994)" />
  <g
     style="color:#000000;fill:none;stroke:currentColor;stroke-width:1;stroke-linecap:butt;stroke-linejoin:miter"
     id="g120"
     transform="translate(-38.081641,-6.0009277)">
    <g
       transform="translate(512.1,39.1)"
       style="font-size:15px;text-anchor:end;fill:#000000;stroke:none;font-family:Arial"
       id="g122">
      <text
         id="text124">1/sqrt(x)-InvSqrt(x)</text>
    </g>
  </g>
  <g
     style="color:#ff0000;fill:none;stroke:currentColor;stroke-width:1;stroke-linecap:butt;stroke-linejoin:miter"
     id="g126"
     transform="translate(-38.081641,-6.0009277)">
    <path
       d="m 520.4,34.6 42.2,0 M 95.4,185 l 0.3,0.1 0.4,0.2 0.3,0.4 0.4,0.5 0.3,0.6 0.4,0.7 0.3,1 0.4,1 0.3,1.3 0.4,1.4 0.3,1.6 0.4,1.8 0.3,2.1 0.4,2.4 0.3,2.6 0.4,3 0.3,3.4 0.4,3.9 0.3,4.5 0.4,5.1 0.3,6.1 0.4,7.3 0.3,8.8 0.4,11.3 0.3,15.2 0.4,22.4 0.3,42.6 0.4,65 0.3,-90.5 0.4,-32.9 0.3,-20.8 0.3,-15.4 0.4,-12.4 0.3,-10.3 0.4,-8.9 0.3,-7.8 0.4,-7.1 0.3,-5.2 0.4,0.6 0.3,0.4 0.4,0.4 0.3,0.2 0.4,0.2 0.3,0 0.4,0.5 0.3,3.9 0.4,4.1 0.3,4.4 0.4,4.8 0.3,5.1 0.4,5.5 0.3,6.1 0.4,6.8 0.3,7.5 0.4,8.7 0.3,10.1 0.4,12.1 0.3,15.5 0.4,21.4 0.3,34.8 0,100.9 m 0.7,0 0,-89.3 0.4,-38.5 0.3,-21.7 0.3,-15 0.4,-11.4 0.3,-9 0.4,-7.5 0.3,-6.4 0.4,-5.5 0.3,-4.8 0.4,-4.2 0.3,-3.8 0.4,-3.3 0.3,-3.1 0.4,-2.7 0.3,-2.4 0.4,-2.2 0.3,-2 0.4,-1.8 0.3,-1.6 0.4,-1.5 0.3,-1.3 0.4,-1.1 0.3,-1 0.4,-0.9 0.3,-0.7 0.4,-0.6 0.3,-0.5 0.4,-0.3 0.3,-0.3 0.4,-0.1 0.3,0 0.4,0.2 0.3,0.3 0.4,0.4 0.3,0.5 0.3,0.7 0.4,0.8 0.3,1 0.4,1.1 0.3,1.3 0.4,1.6 0.3,1.7 0.4,2 0.3,2.2 0.4,2.5 0.3,2.9 0.4,3.3 0.3,3.7 0.4,4.3 0.3,4.9 0.4,5.8 0.3,6.9 0.4,1.1 0.3,-5.3 0.4,-4.7 0.3,-4.1 0.4,-3.7 0.3,-3.3 0.4,-3 0.3,-2.7 0.4,-2.4 0.3,-2.2 0.4,-2 0.3,-1.8 0.4,-1.6 0.3,-1.4 0.3,-1.3 0.4,-1.2 0.3,-1 0.4,-0.9 0.3,-0.7 0.4,-0.7 0.3,-0.5 0.4,-0.4 0.3,-0.3 0.4,-0.1 0.3,-0.1 0.4,0.1 0.3,0.2 0.4,0.3 0.3,0.5 0.4,0.6 0.3,0.7 0.4,0.8 0.3,1 0.4,1.2 0.3,1.4 0.4,1.5 0.3,1.8 0.4,2 0.3,2.2 0.4,2.6 0.3,2.9 0.4,3.2 0.3,3.8 0.4,4.2 0.3,5 0.4,5.7 0.3,6.8 0.3,8.4 0.4,10.4 0.3,13.6 0.4,19.6 0.3,33 0.4,107.2 0.3,-98.5 0.4,-40.6 0.3,-23.5 0.4,-16.8 0.3,-13.2 0.4,-10.8 0.3,-9.4 0.4,-8.1 0.3,-7.3 0.4,-6.6 0.3,-0.4 0.4,0.5 0.3,0.4 0.4,0.2 0.3,0.2 0.4,0.1 0.3,-0.1 0.4,3.2 0.3,4 0.4,4.4 0.3,4.6 0.4,5 0.3,5.4 0.4,5.9 0.3,6.5 0.4,7.3 0.3,8.2 0.3,9.6 0.4,11.5 0.3,14.2 0.4,19 0.3,28.6 0.4,67.4 0.3,-18.4 0.4,-52.2 0.3,-25.4 0.4,-16.7 0.3,-12.3 0.4,-9.7 0.3,-8 0.4,-6.7 0.3,-5.7 0.4,-5 0.3,-4.4 0.4,-3.9 0.3,-3.5 0.4,-3.2 0.3,-2.8 0.4,-2.5 0.3,-2.3 0.4,-2 0.3,-1.9 0.4,-1.7 0.3,-1.5 0.4,-1.3 0.3,-1.2 0.4,-1 0.3,-0.9 0.3,-0.8 0.4,-0.6 0.3,-0.6 0.4,-0.3 0.3,-0.3 0.4,-0.2 0.3,0 0.4,0.1 0.3,0.2 0.4,0.4 0.3,0.5 0.4,0.6 0.3,0.8 0.4,0.9 0.3,1.1 0.4,1.3 0.3,1.4 0.4,1.7 0.3,1.9 0.4,2.1 0.3,2.5 0.4,2.7 0.3,3.2 0.4,3.5 0.3,4.1 0.4,4.7 0.3,5.5 0.4,6.5 0.3,5.4 0.4,-5.6 0.3,-4.9 0.4,-4.3 0.3,-3.8 0.3,-3.4 0.4,-3.1 0.3,-2.7 0.4,-2.5 0.3,-2.3 0.4,-2.1 0.3,-1.8 0.4,-1.7 0.3,-1.5 0.4,-1.3 0.3,-1.2 0.4,-1.1 0.3,-0.9 0.4,-0.8 0.3,-0.7 0.4,-0.6 0.3,-0.4 0.4,-0.3 0.3,-0.2 0.4,-0.1 0.3,0.1 0.4,0.1 0.3,0.3 0.4,0.4 0.3,0.5 0.4,0.7 0.3,0.8 0.4,1 0.3,1.1 0.4,1.3 0.3,1.5 0.3,1.7 0.4,1.9 0.3,2.2 0.4,2.4 0.3,2.8 0.4,3.1 0.3,3.6 0.4,4.1 0.3,4.7 0.4,5.4 0.3,6.5 0.4,7.8 0.3,9.6 0.4,12.4 0.3,17.2 0.4,27 0.3,65.3 0.4,-18.3 0.3,-55.6 0.4,-27 0.3,-18.5 0.4,-14.1 0.3,-11.5 0.4,-9.7 0.3,-8.5 0.4,-7.6 0.3,-6.8 0.4,-2.6 0.3,0.5 0.4,0.4 0.3,0.3 0.4,0.3 0.3,0.1 0.3,-0.1 0.4,1.9 0.3,4 0.4,4.2 0.3,4.5 0.4,4.9 0.3,5.3 0.4,5.7 0.3,6.3 0.4,7 0.3,7.9 0.4,9.2 0.3,10.7 0.4,13.2 0.3,16.9 0.4,24.5 0.3,46.6 0.4,42.7 0.3,-70 0.4,-29.7 0.3,-19 0.4,-13.4 0.3,-10.4 0.4,-8.5 0.3,-7.1 0.4,-6 0.3,-5.2 0.4,-4.6 0.3,-4 0.4,-3.7 0.3,-3.2 0.4,-2.9 0.3,-2.6 0.3,-2.4 0.4,-2.1 0.3,-1.9 0.4,-1.8 0.3,-1.5 0.4,-1.4 0.3,-1.2 0.4,-1.1 0.3,-1 0.4,-0.8 0.3,-0.7 0.4,-0.5 0.3,-0.5 0.4,-0.3 0.3,-0.1 0.4,-0.1 0.3,0 0.4,0.2 0.3,0.3 0.4,0.5 0.3,0.6 0.4,0.7 0.3,0.9 0.4,1 0.3,1.2 0.4,1.4 0.3,1.6 0.4,1.8 0.3,2.1 0.4,2.3 0.3,2.7 0.3,3 0.4,3.4 0.3,3.9 0.4,4.5 0.3,5.2 0.4,6.1 0.3,7.4 0.4,-3.6 0.3,-5.1 0.4,-4.5 0.3,-3.9 0.4,-3.6 0.3,-3.2 0.4,-2.8 0.3,-2.6 0.4,-2.3 0.3,-2.2 0.4,-1.9 0.3,-1.7 0.4,-1.5 0.3,-1.5 0.4,-1.2 0.3,-1.1 0.4,-1 0.3,-0.8 0.4,-0.7 0.3,-0.6 0.4,-0.5 0.3,-0.3 0.4,-0.3 0.3,-0.1 0.4,0 0.3,0.1 0.3,0.3 0.4,0.3 0.3,0.5 0.4,0.6 0.3,0.8 0.4,0.9 0.3,1.1 0.4,1.3 0.3,1.4 0.4,1.6 0.3,1.8 0.4,2.1 0.3,2.4 0.4,2.6 0.3,3.1 0.4,3.4 0.3,3.9 0.4,4.4 0.3,5.3 0.4,6.1 0.3,7.3 0.4,9 0.3,11.3 0.4,15.4 0.3,22.6 0.4,42.7 0.3,51.6 0.4,-79.4 0.3,-32.5 0.4,-20.6 0.3,-15.2 0.3,-12.2 0.4,-10.3 0.3,-8.8 0.4,-7.9 0.3,-7 0.4,-4.9 0.3,0.5 0.4,0.5 0.3,0.3 0.4,0.3 0.3,0.1 0.4,0 0.3,0.7 0.4,3.9 0.3,4.1 0.4,4.4 0.3,4.8 0.4,5.1 0.3,5.6 0.4,6.1 0.3,6.8 0.4,7.5 0.3,8.7 0.4,10.1 0.3,12.4 0.4,15.4 0.3,22.1 0.4,36.7 0,42.7 m 0.7,0 0,-36.8 0.3,-36.7 0.4,-21.5 0.3,-14.9 0.3,-11.1 0.4,-9.1 0.3,-7.5 0.4,-6.3 0.3,-5.4 0.4,-4.8 0.3,-4.2 0.4,-3.8 0.3,-3.3 0.4,-3 0.3,-2.7 0.4,-2.5 0.3,-2.2 0.4,-1.9 0.3,-1.8 0.4,-1.7 0.3,-1.4 0.4,-1.3 0.3,-1.1 0.4,-1 0.3,-0.9 0.4,-0.7 0.3,-0.6 0.4,-0.4 0.3,-0.4 0.4,-0.2 0.3,-0.1 0.4,0 0.3,0.1 0.4,0.3 0.3,0.4 0.4,0.6 0.3,0.6 0.3,0.9 0.4,0.9 0.3,1.2 0.4,1.3 0.3,1.6 0.4,1.7 0.3,2 0.4,2.2 0.3,2.6 0.4,2.9 0.3,3.2 0.4,3.8 0.3,4.3 0.4,4.9 0.3,5.8 0.4,7 0.3,0.6 0.4,-5.3 0.3,-4.6 0.4,-4.1 0.3,-3.7 0.4,-3.3 0.3,-3 0.4,-2.6 0.3,-2.4 0.4,-2.2 0.3,-2 0.4,-1.8 0.3,-1.6 0.4,-1.5 0.3,-1.2 0.3,-1.2 0.4,-1 0.3,-0.9 0.4,-0.7 0.3,-0.7 0.4,-0.5 0.3,-0.4 0.4,-0.2 0.3,-0.2 0.4,0 0.3,0 0.4,0.3 0.3,0.3 0.4,0.4 0.3,0.6 0.4,0.7 0.3,0.9 0.4,1 0.3,1.2 0.4,1.4 0.3,1.5 0.4,1.8 0.3,2 0.4,2.3 0.3,2.5 0.4,2.9 0.3,3.3 0.4,3.7 0.3,4.3 0.4,5 0.3,5.8 0.4,6.8 0.3,8.3 0.3,10.7 0.4,13.5 0.3,20 0.4,32.7 0,51.6"
       id="path128" />
    <path
       d="m 299.6,444 0,-47.5 0.3,-37.9 0.4,-22.7 0.3,-16.8 0.4,-12.9 0.3,-10.8 0.4,-9.3 0.3,-8.1 0.4,-7.3 0.3,-6.6 0.4,-0.2 0.3,0.5 0.4,0.4 0.3,0.3 0.4,0.2 0.3,0 0.4,0 0.3,3.3 0.4,4 0.3,4.4 0.4,4.6 0.3,5 0.4,5.5 0.3,5.8 0.4,6.6 0.3,7.4 0.3,8.2 0.4,9.8 0.3,11.4 0.4,14.3 0.3,18.4 0.4,33.2 0,36.8 m 0.7,0 0.3,-47.5 0.4,-22.5 0.3,-17.4 0.4,-11.7 0.3,-9.9 0.4,-7.9 0.3,-6.8 0.4,-5.6 0.3,-4.9 0.4,-4.5 0.3,-3.8 0.4,-3.5 0.3,-3.1 0.4,-2.8 0.3,-2.5 0.4,-2.3 0.3,-2 0.4,-1.9 0.3,-1.7 0.4,-1.5 0.3,-1.3 0.4,-1.2 0.3,-1 0.4,-0.9 0.3,-0.8 0.3,-0.6 0.4,-0.6 0.3,-0.3 0.4,-0.3 0.3,-0.1 0.4,-0.1 0.3,0.2 0.4,0.2 0.3,0.4 0.4,0.4 0.3,0.7 0.4,0.7 0.3,1 0.4,1.1 0.3,1.2 0.4,1.6 0.3,1.6 0.4,1.9 0.3,2.1 0.4,2.5 0.3,2.8 0.4,3.1 0.3,3.6 0.4,4.1 0.3,4.7 0.4,5.5 0.3,6.5 0.4,4.9 0.3,-5.4 0.4,-4.9 0.3,-4.2 0.4,-3.9 0.3,-3.4 0.3,-3 0.4,-2.8 0.3,-2.5 0.4,-2.2 0.3,-2.1 0.4,-1.8 0.3,-1.7 0.4,-1.5 0.3,-1.4 0.4,-1.2 0.3,-1 0.4,-0.9 0.3,-0.8 0.4,-0.7 0.3,-0.5 0.4,-0.5 0.3,-0.3 0.4,-0.2 0.3,0 0.4,0 0.3,0.2 0.4,0.3 0.3,0.4 0.4,0.5 0.3,0.6 0.4,0.9 0.3,0.9 0.4,1.2 0.3,1.3 0.4,1.5 0.3,1.7 0.3,1.9 0.4,2.2 0.3,2.4 0.4,2.8 0.3,3.2 0.4,3.6 0.3,4.1 0.4,4.7 0.3,5.5 0.4,6.4 0.3,7.8 0.4,9.8 0.3,13 0.4,16.7 0.3,26 0,47.5 m 0.7,0 0.4,-55.1 0.3,-28 0.4,-18.4 0.3,-14 0.4,-11.4 0.3,-9.7 0.4,-8.6 0.3,-7.5 0.4,-6.8 0.3,-2.4 0.4,0.6 0.3,0.4 0.4,0.3 0.3,0.2 0.4,0.1 0.3,0 0.3,2 0.4,4 0.3,4.2 0.4,4.6 0.3,4.9 0.4,5.2 0.3,5.7 0.4,6.3 0.3,7.2 0.4,8.1 0.3,9 0.4,10.7 0.3,13.3 0.4,16.8 0.3,29.2 0.4,29.1 m 0.7,0 0,-18.4 0.3,-29.1 0.4,-16.1 0.3,-14.5 0.4,-9.3 0.3,-9.1 0.4,-6.7 0.3,-5.8 0.4,-5.5 0.3,-4.5 0.4,-3.9 0.3,-3.6 0.4,-3.2 0.3,-3 0.3,-2.5 0.4,-2.4 0.3,-2.1 0.4,-2 0.3,-1.7 0.4,-1.5 0.3,-1.4 0.4,-1.3 0.3,-1 0.4,-1 0.3,-0.7 0.4,-0.8 0.3,-0.5 0.4,-0.4 0.3,-0.4 0.4,-0.1 0.3,0 0.4,0 0.3,0.2 0.4,0.3 0.3,0.5 0.4,0.5 0.3,0.7 0.4,1 0.3,1 0.4,1.3 0.3,1.3 0.4,1.6 0.3,1.8 0.4,2.1 0.3,2.4 0.4,2.6 0.3,3.1 0.3,3.4 0.4,3.8 0.3,4.7 0.4,5 0.3,6.2 0.4,7.5 0.3,-4.3 0.4,-4.9 0.3,-4.5 0.4,-3.8 0.3,-3.6 0.4,-3.2 0.3,-2.9 0.4,-2.5 0.3,-2.2 0.4,-2.2 0.3,-2 0.4,-1.7 0.3,-1.5 0.4,-1.4 0.3,-1.2 0.4,-1.1 0.3,-0.9 0.4,-0.9 0.3,-0.7 0.4,-0.6 0.3,-0.5 0.4,-0.4 0.3,-0.1 0.4,-0.1 0.3,0 0.3,0.1 0.4,0.2 0.3,0.3 0.4,0.5 0.3,0.8 0.4,0.7 0.3,0.9 0.4,1.1 0.3,1.2 0.4,1.5 0.3,1.6 0.4,1.8 0.3,2.1 0.4,2.3 0.3,2.8 0.4,3 0.3,3.4 0.4,3.9 0.3,4.6 0.4,5.2 0.3,5.9 0.4,7.7 0.3,8.7 0.4,11.8 0.3,15.5 0.4,24.3 0.3,36.8 m 0.7,0 0,-29.1 0.4,-29.2 0.3,-19.8 0.4,-14.6 0.3,-12.6 0.3,-10.2 0.4,-8.7 0.3,-7.8 0.4,-7 0.3,-4.7 0.4,0.6 0.3,0.4 0.4,0.4 0.3,0.3 0.4,0.1 0.3,0 0.4,0.8 0.3,3.8 0.4,4.3 0.3,4.3 0.4,4.8 0.3,5.2 0.4,5.7 0.3,5.8 0.4,6.9 0.3,7.6 0.4,8.4 0.3,10.8 0.4,12.4 0.3,13.6 0.4,29.1 0.3,18.4 m 0.7,0 0.4,-18.4 0.3,-24.3 0.4,-12.4 0.3,-10.8 0.3,-9.2 0.4,-8 0.3,-6.2 0.4,-5 0.3,-4.8 0.4,-4.1 0.3,-4 0.4,-3.1 0.3,-3.1 0.4,-2.8 0.3,-2.2 0.4,-2.4 0.3,-1.8 0.4,-1.8 0.3,-1.6 0.4,-1.6 0.3,-1.3 0.4,-1 0.3,-0.9 0.4,-1 0.3,-0.7 0.4,-0.5 0.3,-0.6 0.4,-0.3 0.3,-0.2 0.4,-0.1 0.3,0 0.4,0.1 0.3,0.4 0.4,0.3 0.3,0.5 0.3,0.8 0.4,0.9 0.3,0.9 0.4,1.2 0.3,1.3 0.4,1.5 0.3,1.9 0.4,2 0.3,2.2 0.4,2.4 0.3,3 0.4,3.3 0.3,3.8 0.4,4.5 0.3,4.7 0.4,5.8 0.3,7.3 0.4,0 0.3,-5.7 0.4,-3.9 0.3,-4.1 0.4,-4.1 0.3,-3.1 0.4,-3.1 0.3,-2.5 0.4,-2.6 0.3,-2 0.4,-1.9 0.3,-1.8 0.4,-1.6 0.3,-1.6 0.4,-1.2 0.3,-1.2 0.3,-0.9 0.4,-0.9 0.3,-0.9 0.4,-0.6 0.3,-0.4 0.4,-0.4 0.3,-0.4 0.4,0 0.3,-0.2 0.4,0.2 0.3,0.2 0.4,0.4 0.3,0.4 0.4,0.6 0.3,0.7 0.4,0.8 0.3,1.2 0.4,1.1 0.3,1.5 0.4,1.6 0.3,1.6 0.4,2.1 0.3,2.2 0.4,2.5 0.3,3.1 0.4,3.1 0.3,4 0.4,4.1 0.3,4.8 0.4,5.9 0.3,7.7 0.3,7.2 0.4,12.4 0.3,13.6 0.4,18.4 0.3,29.1 m 0.7,0 0.4,-29.1 0.3,-26 0.4,-14.9 0.3,-13.1 0.4,-10.4 0.3,-9.7 0.4,-7.9 0.3,-7.3 0.4,-6.7 0.3,0.2 0.4,0.5 0.3,0.2 0.4,0.5 0.3,0 0.4,0 0.3,0 0.4,3.5 0.3,4 0.4,4.3 0.3,4.7 0.4,5.1 0.3,5.6 0.4,5.4 0.3,6.8 0.4,7.7 0.3,8.6 0.3,9.7 0.4,10.8 0.3,18.4 0.4,10.7 0.3,18.4 m 1.1,0 0.3,-18.4 0.4,-10.7 0.3,-13.6 0.4,-12.4 0.3,-6 0.4,-6.9 0.3,-5.5 0.4,-5.9 0.3,-3.7 0.4,-4.3 0.3,-3.7 0.4,-3.2 0.3,-2.8 0.4,-2 0.3,-2.4 0.4,-2.2 0.3,-2.1 0.4,-1.4 0.3,-1.4 0.4,-1.3 0.3,-1.2 0.4,-1.2 0.3,-0.7 0.4,-0.8 0.3,-0.7 0.3,-0.3 0.4,-0.7 0.3,0 0.4,-0.4 0.3,0 0.4,0 0.3,0.4 0.4,0.3 0.3,0.7 0.4,0.4 0.3,1.1 0.4,0.7 0.3,1.2 0.4,1.2 0.3,1.3 0.4,1.9 0.3,1.9 0.4,2.1 0.3,2.4 0.4,3.2 0.3,2.8 0.4,3.2 0.3,4.7 0.4,4.4 0.3,5.4 0.4,6.6 0.3,4.1 0.4,-4.1 0.3,-5.1 0.4,-4.3 0.3,-3.7 0.3,-4.3 0.4,-2.8 0.3,-2.5 0.4,-2.3 0.3,-2.8 0.4,-1.9 0.3,-1.8 0.4,-1.7 0.3,-1.6 0.4,-1 0.3,-1.4 0.4,-0.9 0.3,-0.9 0.4,-0.9 0.3,-0.4 0.4,-0.8 0.3,-0.4 0.4,-0.4 0.3,0 0.4,0 0.3,0 0.4,0 0.3,0.4 0.4,0.4 0.3,0.4 0.4,0.8 0.3,0.9 0.4,0.9 0.3,1.4 0.4,0.9 0.3,1.5 0.4,1.6 0.3,2.4 0.3,1.8 0.4,2.8 0.3,3 0.4,2.5 0.3,3.8 0.4,4.4 0.3,3.9 0.4,6.3 0.3,5.9 0.4,7.6 0.3,10.8 0.4,10.7 0.3,18.4 0.4,18.4"
       id="path130" />
    <path
       d="m 494,444 0.4,-29.1 0.3,-18.4 0.4,-13.6 0.3,-10.7 0.4,-10.2 0.3,-8.2 0.4,-7.6 0.3,-7 0.4,-1.9 0.3,0.4 0.4,0.5 0.3,0.5 0.4,0 0.3,0 0.3,0 0.4,2.1 0.3,4.1 0.4,4.1 0.3,4.8 0.4,4.8 0.3,6 0.4,5.9 0.3,5.5 0.4,6.9 0.3,9.5 0.4,8.9 0.3,13.6 0.4,10.7 0.3,18.4 m 1.8,0 0.3,0 0.4,-18.4 0.3,-10.7 0.4,-13.6 0.3,-4.8 0.4,-7.6 0.3,-3.2 0.4,-5.3 0.3,-4.4 0.4,-3.8 0.3,-3.3 0.4,-3 0.3,-2.6 0.3,-1.3 0.4,-2.3 0.3,-2.1 0.4,-2 0.3,-1.8 0.4,-0.9 0.3,-1.6 0.4,-0.8 0.3,-0.8 0.4,-0.7 0.3,-0.7 0.4,-0.8 0.3,-0.6 0.4,0 0.3,0 0.4,0 0.3,0 0.4,0 0.3,0 0.4,0.6 0.3,0.8 0.4,0.7 0.3,0.7 0.4,0.8 0.3,1.6 0.4,1.7 0.3,0.9 0.4,1.9 0.3,2 0.4,2.3 0.3,3.7 0.4,2.8 0.3,3.1 0.3,3.5 0.4,4.1 0.3,4.8 0.4,6 0.3,7.6 0.4,-4.1 0.3,-3.5 0.4,-6 0.3,-2.5 0.4,-4.4 0.3,-2 0.4,-3.5 0.3,-3.1 0.4,-1.5 0.3,-2.6 0.4,-1.3 0.3,-2.3 0.4,-1.1 0.3,-2 0.4,-1 0.3,-0.9 0.4,-0.9 0.3,-0.9 0.4,-0.8 0.3,-0.8 0.4,0 0.3,-0.8 0.4,0 0.3,0 0.4,0 0.3,0 0.3,0 0.4,0.8 0.3,0 0.4,0.8 0.3,0.8 0.4,0.9 0.3,0.9 0.4,1.9 0.3,1 0.4,2.1 0.3,1.2 0.4,2.4 0.3,2.6 0.4,3 0.3,3.3 0.4,1.8 0.3,4.1 0.4,4.8 0.3,6 0.4,7.6 0.3,4.8 0.4,13.6 0.3,10.7 0.4,18.4 0.3,0 m 1.4,0 0.4,-18.4 0.3,-18.4 0.4,-14.8 0.3,-9.5 0.3,-8.9 0.4,-6.6 0.3,-7.7 0.4,-4.1 0.3,0 0.4,1 0.3,0 0.4,0 0.3,1 0.4,0 0.3,0 0.4,4.4 0.3,3.9 0.4,4.6 0.3,5.5 0.4,4.4 0.3,5.3 0.4,6.7 0.3,8.9 0.4,5.9 0.3,7.7 0.4,10.7 0.3,18.4 0.4,0 m 2.1,0 0.3,0 0.3,-18.4 0.4,0 0.3,-10.7 0.4,-7.7 0.3,0 0.4,-5.9 0.3,-4.8 0.4,-4.1 0.3,-3.5 0.4,-3.2 0.3,-2.8 0.4,-2.5 0.3,-2.3 0.4,-2.1 0.3,-2 0.4,-1.8 0.3,0 0.4,-1.7 0.3,-1.6 0.4,0 0.3,-1.5 0.4,0 0.3,-1.5 0.4,0 0.3,0 0.4,-1.3 0.3,0 0.4,0 0.3,0 0.4,1.3 0.3,0 0.4,0 0.3,1.5 0.3,0 0.4,1.5 0.3,1.6 0.4,1.7 0.3,0 0.4,1.8 0.3,2 0.4,2.1 0.3,2.3 0.4,5.3 0.3,3.2 0.4,3.5 0.3,4.1 0.4,4.8 0.3,5.9 0.4,7.7 0.3,0 0.4,-7.7 0.3,-5.9 0.4,0 0.3,-4.8 0.4,-4.1 0.3,-3.5 0.4,-3.2 0.3,0 0.4,-2.8 0.3,-2.5 0.4,-2.3 0.3,0 0.4,-2.1 0.3,-2 0.4,0 0.3,-1.8 0.3,0 0.4,-1.7 0.3,0"
       id="path132" />
  </g>
  <g
     style="color:#008000;fill:none;stroke:currentColor;stroke-width:1;stroke-linecap:butt;stroke-linejoin:miter"
     id="g134"
     transform="translate(-41.814355,-1.6830994)" />
  <g
     style="color:#000000;fill:none;stroke:currentColor;stroke-width:1;stroke-linecap:butt;stroke-linejoin:miter"
     id="g136"
     transform="translate(-38.081641,-6.0009277)">
    <g
       transform="translate(512.1,57.1)"
       style="font-size:15px;text-anchor:end;fill:#000000;stroke:none;font-family:Arial"
       id="g138">
      <text
         id="text140">1/sqrt(x)</text>
    </g>
  </g>
  <g
     style="color:#008000;fill:none;stroke:currentColor;stroke-width:1;stroke-linecap:butt;stroke-linejoin:miter"
     id="g142"
     transform="translate(-38.081641,-6.0009277)">
    <path
       d="m 520.4,52.6 42.2,0 m -467.2,-36 0.3,0.2 0.4,0.1 0.3,0.1 0.4,0.2 0.3,0.1 0.4,0.1 0.3,0.2 0.4,0.1 0.3,0.1 0.4,0.2 0.3,0.1 0.4,0.1 0.3,0.1 0.4,0.2 0.3,0.1 0.4,0.1 0.3,0.2 0.4,0.1 0.3,0.1 0.4,0.2 0.3,0.1 0.4,0.1 0.3,0.1 0.4,0.2 0.3,0.1 0.4,0.1 0.3,0.2 0.4,0.1 0.3,0.1 0.4,0.2 0.3,0.1 0.3,0.1 0.4,0.2 0.3,0.1 0.4,0.1 0.3,0.2 0.4,0.1 0.3,0.2 0.4,0.1 0.3,0.1 0.4,0.2 0.3,0.1 0.4,0.1 0.3,0.1 0.4,0.2 0.3,0.1 0.4,0.1 0.3,0.2 0.4,0.1 0.3,0.1 0.4,0.1 0.3,0.2 0.4,0.1 0.3,0.1 0.4,0.2 0.3,0.1 0.4,0.1 0.3,0.2 0.4,0.1 0.3,0.1 0.4,0.1 0.3,0.2 0.4,0.1 0.3,0.1 0.3,0.2 0.4,0.1 0.3,0.1 0.4,0.2 0.3,0.1 0.4,0.1 0.3,0.2 0.4,0.1 0.3,0.1 0.4,0.2 0.3,0.1 0.4,0.1 0.3,0.2 0.4,0.1 0.3,0.1 0.4,0.2 0.3,0.1 0.4,0.1 0.3,0.2 0.4,0.1 0.3,0.1 0.4,0.2 0.3,0.1 0.4,0.1 0.3,0.2 0.4,0.1 0.3,0.1 0.4,0.2 0.3,0.1 0.4,0.1 0.3,0.2 0.4,0.1 0.3,0.1 0.3,0.2 0.4,0.1 0.3,0.1 0.4,0.2 0.3,0.1 0.4,0.1 0.3,0.2 0.4,0.1 0.3,0.1 0.4,0.1 0.3,0.2 0.4,0.1 0.3,0.1 0.4,0.2 0.3,0.1 0.4,0.1 0.3,0.1 0.4,0.2 0.3,0.1 0.4,0.1 0.3,0.2 0.4,0.1 0.3,0.1 0.4,0.2 0.3,0.1 0.4,0.2 0.3,0.1 0.4,0.1 0.3,0.2 0.4,0.1 0.3,0.1 0.3,0.2 0.4,0.1 0.3,0.1 0.4,0.2 0.3,0.1 0.4,0.1 0.3,0.2 0.4,0.1 0.3,0.1 0.4,0.2 0.3,0.1 0.4,0.1 0.3,0.1 0.4,0.2 0.3,0.1 0.4,0.1 0.3,0.2 0.4,0.1 0.3,0.1 0.4,0.2 0.3,0.1 0.4,0.1 0.3,0.2 0.4,0.1 0.3,0.1 0.4,0.1 0.3,0.2 0.4,0.1 0.3,0.1 0.4,0.2 0.3,0.1 0.4,0.1 0.3,0.1 0.3,0.2 0.4,0.1 0.3,0.1 0.4,0.2 0.3,0.1 0.4,0.1 0.3,0.2 0.4,0.1 0.3,0.1 0.4,0.2 0.3,0.1 0.4,0.1 0.3,0.2 0.4,0.1 0.3,0.2 0.4,0.1 0.3,0.1 0.4,0.2 0.3,0.1 0.4,0.1 0.3,0.2 0.4,0.1 0.3,0.1 0.4,0.1 0.3,0.2 0.4,0.1 0.3,0.1 0.4,0.2 0.3,0.1 0.4,0.1 0.3,0.1 0.4,0.2 0.3,0.1 0.3,0.1 0.4,0.2 0.3,0.1 0.4,0.1 0.3,0.2 0.4,0.1 0.3,0.1 0.4,0.1 0.3,0.2 0.4,0.1 0.3,0.1 0.4,0.2 0.3,0.1 0.4,0.1 0.3,0.2 0.4,0.1 0.3,0.1 0.4,0.2 0.3,0.1 0.4,0.1 0.3,0.2 0.4,0.1 0.3,0.2 0.4,0.1 0.3,0.1 0.4,0.2 0.3,0.1 0.4,0.1 0.3,0.2 0.4,0.1 0.3,0.1 0.3,0.2 0.4,0.1 0.3,0.1 0.4,0.2 0.3,0.1 0.4,0.1 0.3,0.1 0.4,0.2 0.3,0.1 0.4,0.1 0.3,0.2 0.4,0.1 0.3,0.1 0.4,0.2 0.3,0.1 0.4,0.1 0.3,0.2 0.4,0.1 0.3,0.1 0.4,0.1 0.3,0.2 0.4,0.1 0.3,0.1 0.4,0.2 0.3,0.1 0.4,0.1 0.3,0.2 0.4,0.1 0.3,0.1 0.4,0.1 0.3,0.2 0.4,0.1 0.3,0.2 0.3,0.1 0.4,0.1 0.3,0.2 0.4,0.1 0.3,0.1 0.4,0.2 0.3,0.1 0.4,0.1 0.3,0.2 0.4,0.1 0.3,0.1 0.4,0.2 0.3,0.1 0.4,0.1 0.3,0.2 0.4,0.1 0.3,0.1 0.4,0.2 0.3,0.1 0.4,0.1 0.3,0.2 0.4,0.1 0.3,0.1 0.4,0.1 0.3,0.2 0.4,0.1 0.3,0.1 0.4,0.2 0.3,0.1 0.4,0.1 0.3,0.2 0.3,0.1 0.4,0.1 0.3,0.2 0.4,0.1 0.3,0.1 0.4,0.1 0.3,0.2 0.4,0.1 0.3,0.1 0.4,0.2 0.3,0.1 0.4,0.1 0.3,0.1 0.4,0.2 0.3,0.1 0.4,0.1 0.3,0.2 0.4,0.1 0.3,0.1 0.4,0.2 0.3,0.1 0.4,0.1 0.3,0.2 0.4,0.1 0.3,0.1 0.4,0.2 0.3,0.1 0.4,0.2 0.3,0.1 0.4,0.1 0.3,0.2 0.4,0.1 0.3,0.1 0.3,0.2 0.4,0.1 0.3,0.1 0.4,0.1 0.3,0.2 0.4,0.1 0.3,0.1 0.4,0.2 0.3,0.1 0.4,0.1 0.3,0.1 0.4,0.2 0.3,0.1 0.4,0.1 0.3,0.2 0.4,0.1 0.3,0.1 0.4,0.2 0.3,0.1 0.4,0.1 0.3,0.2 0.4,0.1 0.3,0.1 0.4,0.2 0.3,0.1 0.4,0.1 0.3,0.2 0.4,0.1 0.3,0.1 0.4,0.2 0.3,0.1 0.4,0.1 0.3,0.2 0.3,0.1 0.4,0.1 0.3,0.2 0.4,0.1 0.3,0.1 0.4,0.2 0.3,0.1 0.4,0.1 0.3,0.2 0.4,0.1 0.3,0.1 0.4,0.2 0.3,0.1 0.4,0.1 0.3,0.2 0.4,0.1 0.3,0.1 0.4,0.2 0.3,0.1 0.4,0.1 0.3,0.1 0.4,0.2 0.3,0.1 0.4,0.1 0.3,0.2 0.4,0.1 0.3,0.1 0.4,0.2 0.3,0.1 0.4,0.1 0.3,0.1 0.3,0.2 0.4,0.1 0.3,0.1 0.4,0.2 0.3,0.1 0.4,0.1 0.3,0.2 0.4,0.1 0.3,0.1 0.4,0.2 0.3,0.1 0.4,0.1 0.3,0.2 0.4,0.1 0.3,0.1 0.4,0.2 0.3,0.1 0.4,0.1 0.3,0.2 0.4,0.1 0.3,0.1 0.4,0.2 0.3,0.1 0.4,0.1 0.3,0.2 0.4,0.1 0.3,0.1 0.4,0.2 0.3,0.1 0.4,0.1 0.3,0.2 0.4,0.1 0.3,0.1 0.3,0.2 0.4,0.1 0.3,0.1 0.4,0.1 0.3,0.2 0.4,0.1 0.3,0.1 0.4,0.2 0.3,0.1 0.4,0.1 0.3,0.2 0.4,0.1 0.3,0.1 0.4,0.1 0.3,0.2 0.4,0.1 0.3,0.1 0.4,0.2 0.3,0.1 0.4,0.1 0.3,0.2 0.4,0.1 0.3,0.1 0.4,0.1 0.3,0.2 0.4,0.1 0.3,0.1 0.4,0.2 0.3,0.1 0.4,0.1 0.3,0.2 0.3,0.1 0.4,0.1 0.3,0.2 0.4,0.1 0.3,0.2 0.4,0.1 0.3,0.1 0.4,0.2 0.3,0.1 0.4,0.1 0.3,0.2 0.4,0.1 0.3,0.1 0.4,0.2 0.3,0.1 0.4,0.1 0.3,0.1 0.4,0.2 0.3,0.1 0.4,0.1 0.3,0.1 0.4,0.2 0.3,0.1 0.4,0.1 0.3,0.2 0.4,0.1 0.3,0.1 0.4,0.2 0.3,0.1 0.4,0.1 0.3,0.2 0.4,0.1 0.3,0.1 0.3,0.2 0.4,0.1 0.3,0.1 0.4,0.2 0.3,0.1 0.4,0.1 0.3,0.2 0.4,0.1 0.3,0.1 0.4,0.2 0.3,0.1 0.4,0.1 0.3,0.2 0.4,0.1 0.3,0.1 0.4,0.2 0.3,0.1 0.4,0.1 0.3,0.2 0.4,0.1 0.3,0.1 0.4,0.2 0.3,0.1 0.4,0.1 0.3,0.2 0.4,0.1 0.3,0.1 0.4,0.2 0.3,0.1 0.4,0.1 0.3,0.2 0.4,0.1 0.3,0.1 0.3,0.1 0.4,0.2 0.3,0.1 0.4,0.1 0.3,0.2 0.4,0.1 0.3,0.1 0.4,0.2 0.3,0.1 0.4,0.1 0.3,0.1 0.4,0.2 0.3,0.1 0.4,0.1 0.3,0.2 0.4,0.1 0.3,0.1 0.4,0.2 0.3,0.1 0.4,0.1 0.3,0.2 0.4,0.1 0.3,0.1 0.4,0.2 0.3,0.1 0.4,0.1 0.3,0.2 0.4,0.1 0.3,0.1 0.4,0.2 0.3,0.1 0.3,0.1 0.4,0.2 0.3,0.1 0.4,0.1 0.3,0.2 0.4,0.1 0.3,0.1 0.4,0.2 0.3,0.1 0.4,0.1 0.3,0.2 0.4,0.1 0.3,0.1 0.4,0.2 0.3,0.1 0.4,0.1 0.3,0.1 0.4,0.2 0.3,0.1 0.4,0.1 0.3,0.2 0.4,0.1 0.3,0.1 0.4,0.2 0.3,0.1 0.4,0.1 0.3,0.1 0.4,0.2 0.3,0.1 0.4,0.1 0.3,0.2 0.4,0.1 0.3,0.1 0.3,0.2 0.4,0.1 0.3,0.1 0.4,0.1 0.3,0.2 0.4,0.1 0.3,0.1 0.4,0.2 0.3,0.1 0.4,0.1 0.3,0.2 0.4,0.1 0.3,0.2 0.4,0.1 0.3,0.1 0.4,0.2 0.3,0.1 0.4,0.1 0.3,0.2 0.4,0.1 0.3,0.1 0.4,0.2 0.3,0.1 0.4,0.1 0.3,0.1 0.4,0.2 0.3,0.1 0.4,0.1 0.3,0.2 0.4,0.1 0.3,0.1 0.3,0.1 0.4,0.2 0.3,0.1 0.4,0.1 0.3,0.2 0.4,0.1 0.3,0.1 0.4,0.2 0.3,0.1 0.4,0.1 0.3,0.2 0.4,0.1 0.3,0.1 0.4,0.2 0.3,0.1 0.4,0.1 0.3,0.2 0.4,0.1 0.3,0.1 0.4,0.2 0.3,0.1 0.4,0.1 0.3,0.2 0.4,0.1 0.3,0.1 0.4,0.2 0.3,0.1 0.4,0.1 0.3,0.2 0.4,0.1 0.3,0.1 0.4,0.2 0.3,0.1 0.3,0.1 0.4,0.2 0.3,0.1 0.4,0.1 0.3,0.2 0.4,0.1 0.3,0.1 0.4,0.2 0.3,0.1 0.4,0.1 0.3,0.2 0.4,0.1 0.3,0.1 0.4,0.1 0.3,0.2 0.4,0.1 0.3,0.1 0.4,0.2 0.3,0.1 0.4,0.1 0.3,0.2 0.4,0.1 0.3,0.1 0.4,0.1 0.3,0.2 0.4,0.1 0.3,0.1 0.4,0.2 0.3,0.1 0.4,0.1 0.3,0.2 0.4,0.1 0.3,0.1 0.3,0.2 0.4,0.1 0.3,0.1 0.4,0.2 0.3,0.1 0.4,0.1 0.3,0.2 0.4,0.1 0.3,0.1 0.4,0.2 0.3,0.1 0.4,0.1 0.3,0.2 0.4,0.1 0.3,0.1 0.4,0.2 0.3,0.1 0.4,0.1 0.3,0.2 0.4,0.1 0.3,0.1 0.4,0.2 0.3,0.1 0.4,0.1 0.3,0.2 0.4,0.1 0.3,0.1 0.4,0.1 0.3,0.2 0.4,0.1 0.3,0.1 0.3,0.2 0.4,0.1 0.3,0.1 0.4,0.2 0.3,0.1 0.4,0.1 0.3,0.1 0.4,0.2 0.3,0.1 0.4,0.1 0.3,0.2 0.4,0.1 0.3,0.1 0.4,0.2 0.3,0.1 0.4,0.1 0.3,0.1 0.4,0.2 0.3,0.1 0.4,0.1 0.3,0.2 0.4,0.1 0.3,0.2 0.4,0.1 0.3,0.1 0.4,0.2 0.3,0.1 0.4,0.1 0.3,0.2 0.4,0.1 0.3,0.1 0.4,0.2 0.3,0.1 0.3,0.1 0.4,0.2 0.3,0.1 0.4,0.1 0.3,0.1 0.4,0.2 0.3,0.1 0.4,0.1 0.3,0.2 0.4,0.1 0.3,0.1 0.4,0.1 0.3,0.2 0.4,0.1 0.3,0.1 0.4,0.2 0.3,0.1 0.4,0.1 0.3,0.2 0.4,0.1 0.3,0.1 0.4,0.2 0.3,0.1 0.4,0.1 0.3,0.2 0.4,0.1 0.3,0.1 0.4,0.2 0.3,0.1 0.4,0.1 0.3,0.2 0.3,0.1 0.4,0.1 0.3,0.2 0.4,0.1 0.3,0.1 0.4,0.2 0.3,0.1 0.4,0.1 0.3,0.2 0.4,0.1 0.3,0.1 0.4,0.2 0.3,0.1 0.4,0.1 0.3,0.2 0.4,0.1 0.3,0.1 0.4,0.2 0.3,0.1 0.4,0.1 0.3,0.2 0.4,0.1 0.3,0.1 0.4,0.2 0.3,0.1 0.4,0.1 0.3,0.1 0.4,0.2 0.3,0.1 0.4,0.1 0.3,0.2 0.4,0.1 0.3,0.1 0.3,0.2 0.4,0.1 0.3,0.1 0.4,0.1 0.3,0.2 0.4,0.1 0.3,0.1 0.4,0.2 0.3,0.1 0.4,0.1 0.3,0.2 0.4,0.1 0.3,0.1 0.4,0.2 0.3,0.1 0.4,0.1 0.3,0.2 0.4,0.1 0.3,0.1 0.4,0.2 0.3,0.1 0.4,0.1 0.3,0.2 0.4,0.1 0.3,0.1 0.4,0.2 0.3,0.1 0.4,0.1 0.3,0.2 0.4,0.1 0.3,0.1 0.3,0.2 0.4,0.1 0.3,0.1 0.4,0.2 0.3,0.1 0.4,0.1 0.3,0.2 0.4,0.1 0.3,0.1 0.4,0.1 0.3,0.2 0.4,0.1 0.3,0.1 0.4,0.2 0.3,0.1 0.4,0.1 0.3,0.2 0.4,0.1 0.3,0.1 0.4,0.1 0.3,0.2 0.4,0.1 0.3,0.1 0.4,0.2 0.3,0.1 0.4,0.1 0.3,0.2 0.4,0.1 0.3,0.1 0.4,0.1 0.3,0.2 0.4,0.1 0.3,0.2 0.3,0.1 0.4,0.1 0.3,0.2 0.4,0.1 0.3,0.1 0.4,0.2 0.3,0.1 0.4,0.1 0.3,0.2 0.4,0.1 0.3,0.1 0.4,0.2 0.3,0.1 0.4,0.1 0.3,0.1 0.4,0.2 0.3,0.1 0.4,0.1 0.3,0.2 0.4,0.1 0.3,0.1 0.4,0.2 0.3,0.1 0.4,0.1 0.3,0.1 0.4,0.2 0.3,0.1 0.4,0.1 0.3,0.2 0.4,0.1 0.3,0.1 0.4,0.2 0.3,0.1 0.3,0.1 0.4,0.2 0.3,0.1 0.4,0.1 0.3,0.2 0.4,0.1 0.3,0.1 0.4,0.2 0.3,0.1 0.4,0.1 0.3,0.2 0.4,0.1 0.3,0.1 0.4,0.2 0.3,0.1 0.4,0.1 0.3,0.2 0.4,0.1 0.3,0.1 0.4,0.2 0.3,0.1 0.4,0.1 0.3,0.2 0.4,0.1 0.3,0.1 0.4,0.2 0.3,0.1 0.4,0.1 0.3,0.2 0.4,0.1 0.3,0.1 0.3,0.2 0.4,0.1 0.3,0.1 0.4,0.2 0.3,0.1 0.4,0.1 0.3,0.1 0.4,0.2 0.3,0.1 0.4,0.1 0.3,0.2 0.4,0.1 0.3,0.1 0.4,0.1 0.3,0.2 0.4,0.1 0.3,0.1 0.4,0.2 0.3,0.1 0.4,0.1 0.3,0.2 0.4,0.1 0.3,0.1 0.4,0.2 0.3,0.1 0.4,0.1 0.3,0.2 0.4,0.1 0.3,0.1 0.4,0.2 0.3,0.1 0.4,0.1 0.3,0.2 0.3,0.1 0.4,0.1 0.3,0.2 0.4,0.1 0.3,0.1 0.4,0.2 0.3,0.1 0.4,0.1 0.3,0.2 0.4,0.1 0.3,0.1 0.4,0.2 0.3,0.1 0.4,0.1 0.3,0.2 0.4,0.1 0.3,0.1 0.4,0.2 0.3,0.1 0.4,0.1 0.3,0.1 0.4,0.2 0.3,0.1 0.4,0.1 0.3,0.2 0.4,0.1 0.3,0.1 0.4,0.1 0.3,0.2 0.4,0.1 0.3,0.1 0.3,0.2 0.4,0.1 0.3,0.1 0.4,0.2 0.3,0.1 0.4,0.1 0.3,0.2 0.4,0.1 0.3,0.1 0.4,0.2 0.3,0.1 0.4,0.1 0.3,0.2 0.4,0.1 0.3,0.1 0.4,0.2 0.3,0.1 0.4,0.1 0.3,0.2 0.4,0.1 0.3,0.1 0.4,0.2 0.3,0.1 0.4,0.1 0.3,0.2 0.4,0.1 0.3,0.1 0.4,0.1 0.3,0.2 0.4,0.1 0.3,0.1 0.4,0.2 0.3,0.1 0.3,0.1 0.4,0.1 0.3,0.2 0.4,0.1 0.3,0.1 0.4,0.2 0.3,0.1 0.4,0.1 0.3,0.2 0.4,0.1 0.3,0.1 0.4,0.2 0.3,0.1 0.4,0.1 0.3,0.2 0.4,0.1 0.3,0.1 0.4,0.2 0.3,0.1 0.4,0.1 0.3,0.2 0.4,0.1 0.3,0.1 0.4,0.2 0.3,0.1 0.4,0.1 0.3,0.2 0.4,0.1 0.3,0.1 0.4,0.2 0.3,0.1 0.4,0.1 0.3,0.2 0.3,0.1 0.4,0.1 0.3,0.2 0.4,0.1 0.3,0.1 0.4,0.2 0.3,0.1 0.4,0.1 0.3,0.2 0.4,0.1 0.3,0.1 0.4,0.2 0.3,0.1 0.4,0.1 0.3,0.1 0.4,0.2 0.3,0.1 0.4,0.1 0.3,0.2 0.4,0.1 0.3,0.1 0.4,0.2 0.3,0.1 0.4,0.1 0.3,0.1 0.4,0.2 0.3,0.1 0.4,0.1 0.3,0.2 0.4,0.1 0.3,0.1 0.3,0.2 0.4,0.1 0.3,0.1 0.4,0.2 0.3,0.1 0.4,0.1 0.3,0.2 0.4,0.1 0.3,0.1 0.4,0.2 0.3,0.1 0.4,0.1 0.3,0.2 0.4,0.1 0.3,0.1 0.4,0.2 0.3,0.1 0.4,0.1 0.3,0.2 0.4,0.1 0.3,0.1 0.4,0.2 0.3,0.1 0.4,0.1 0.3,0.2 0.4,0.1 0.3,0.1 0.4,0.2 0.3,0.1 0.4,0.1 0.3,0.2 0.4,0.1 0.3,0.1 0.3,0.1 0.4,0.2 0.3,0.1 0.4,0.1 0.3,0.2 0.4,0.1 0.3,0.1 0.4,0.1 0.3,0.2 0.4,0.1 0.3,0.1 0.4,0.2 0.3,0.1 0.4,0.1 0.3,0.2 0.4,0.1 0.3,0.1 0.4,0.2 0.3,0.1 0.4,0.1 0.3,0.2 0.4,0.1 0.3,0.1 0.4,0.2 0.3,0.1 0.4,0.2 0.3,0.1 0.4,0.1 0.3,0.2 0.4,0.1 0.3,0.1 0.3,0.1 0.4,0.2 0.3,0.1 0.4,0.1 0.3,0.2 0.4,0.1 0.3,0.1 0.4,0.1 0.3,0.2 0.4,0.1 0.3,0.1 0.4,0.2 0.3,0.1 0.4,0.1 0.3,0.1 0.4,0.2 0.3,0.1 0.4,0.1 0.3,0.2 0.4,0.1 0.3,0.1 0.4,0.2 0.3,0.1 0.4,0.1 0.3,0.2 0.4,0.1 0.3,0.1 0.4,0.2 0.3,0.1 0.4,0.1 0.3,0.2 0.4,0.1 0.3,0.1 0.3,0.2 0.4,0.1 0.3,0.1 0.4,0.2 0.3,0.1 0.4,0.1 0.3,0.2 0.4,0.1 0.3,0.1 0.4,0.2 0.3,0.1 0.4,0.1 0.3,0.2 0.4,0.1 0.3,0.1 0.4,0.2 0.3,0.1 0.4,0.1 0.3,0.2 0.4,0.1 0.3,0.1 0.4,0.2 0.3,0.1 0.4,0.1 0.3,0.2 0.4,0.1 0.3,0.1 0.4,0.1 0.3,0.2 0.4,0.1 0.3,0.1 0.4,0.2 0.3,0.1 0.3,0.1 0.4,0.2 0.3,0.1 0.4,0.1 0.3,0.1 0.4,0.2 0.3,0.1 0.4,0.1 0.3,0.2 0.4,0.1 0.3,0.1 0.4,0.2 0.3,0.1 0.4,0.1 0.3,0.2 0.4,0.1 0.3,0.2 0.4,0.1 0.3,0.1 0.4,0.2 0.3,0.1 0.4,0.1 0.3,0.2 0.4,0.1 0.3,0.1 0.4,0.2 0.3,0.1 0.4,0.1 0.3,0.1 0.4,0.2 0.3,0.1 0.3,0.1 0.4,0.2 0.3,0.1 0.4,0.1 0.3,0.2 0.4,0.1 0.3,0.1 0.4,0.2 0.3,0.1 0.4,0.1 0.3,0.2 0.4,0.1 0.3,0.1 0.4,0.1 0.3,0.2 0.4,0.1 0.3,0.1 0.4,0.2 0.3,0.1 0.4,0.1 0.3,0.1 0.4,0.2 0.3,0.1 0.4,0.1 0.3,0.2 0.4,0.1 0.3,0.1 0.4,0.2 0.3,0.1 0.4,0.1 0.3,0.2 0.4,0.1 0.3,0.1 0.3,0.2 0.4,0.1 0.3,0.2 0.4,0.1 0.3,0.1 0.4,0.2 0.3,0.1 0.4,0.1 0.3,0.2 0.4,0.1 0.3,0.1 0.4,0.1 0.3,0.2 0.4,0.1 0.3,0.1 0.4,0.1 0.3,0.2 0.4,0.1 0.3,0.1 0.4,0.2 0.3,0.1 0.4,0.1 0.3,0.2 0.4,0.1 0.3,0.1 0.4,0.1 0.3,0.2 0.4,0.1 0.3,0.1 0.4,0.2 0.3,0.1 0.3,0.1 0.4,0.2 0.3,0.1 0.4,0.1 0.3,0.2 0.4,0.1 0.3,0.1 0.4,0.2 0.3,0.1 0.4,0.1 0.3,0.2 0.4,0.1 0.3,0.1 0.4,0.2 0.3,0.1 0.4,0.1 0.3,0.2 0.4,0.1 0.3,0.2 0.4,0.1 0.3,0.1 0.4,0.2 0.3,0.1 0.4,0.1 0.3,0.2 0.4,0.1 0.3,0.1 0.4,0.1 0.3,0.2 0.4,0.1 0.3,0.1 0.4,0.2 0.3,0.1 0.3,0.1 0.4,0.2 0.3,0.1 0.4,0.1 0.3,0.2 0.4,0.1 0.3,0.1 0.4,0.1 0.3,0.2 0.4,0.1 0.3,0.1 0.4,0.2 0.3,0.1 0.4,0.1 0.3,0.2 0.4,0.1 0.3,0.1 0.4,0.1 0.3,0.2 0.4,0.1 0.3,0.1 0.4,0.2 0.3,0.1 0.4,0.2 0.3,0.1 0.4,0.1 0.3,0.2 0.4,0.1 0.3,0.1 0.4,0.2 0.3,0.1 0.4,0.1 0.3,0.2 0.3,0.1 0.4,0.1 0.3,0.2"
       id="path144" />
  </g>
  <g
     style="color:#000000;fill:none;stroke:currentColor;stroke-width:1;stroke-linecap:butt;stroke-linejoin:miter"
     id="g146"
     transform="translate(-38.081641,-6.0009277)">
    <path
       d="m 95.4,16.6 0,427.4 483.8,0 0,-427.4 -483.8,0 z"
       id="path148" />
  </g>
</svg>
