<?xml version="1.0" standalone="no"?>
<!DOCTYPE svg PUBLIC "-//W3C//DTD SVG 1.1//EN"
  "http://www.w3.org/Graphics/SVG/1.1/DTD/svg11.dtd">
<!-- Created with matplotlib (http://matplotlib.sourceforge.net/) -->
<svg width="210pt" height="380pt" viewBox="0 0 210 380"
   xmlns="http://www.w3.org/2000/svg"
   xmlns:xlink="http://www.w3.org/1999/xlink"
   version="1.1"
   id="svg1">
<filter id="colorAdd"><feComposite in="SourceGraphic" in2="BackgroundImage" operator="arithmetic" k2="1" k3="1"/></filter>
<g id="figure1">
<g id="patch1">
<path style="fill: #ffffff; stroke: #ffffff; stroke-width: 1.000000; stroke-linejoin: round; stroke-linecap: square;  opacity: 1.000000"  d="M0.000000 380.278125L210.500000 380.278125L210.500000 0.000000
L0.000000 0.000000z"/>
</g>
<g id="axes1">
<g id="patch2">
<path style="fill: #ffffff; opacity: 1.000000"  d="M32.300000 167.890909L199.700000 167.890909L199.700000 10.800000
L32.300000 10.800000z"/>
</g>
<g id="line2d1">
<defs>
  <clipPath id="peb9b5f3c96fdc8f31738a5860debca55">
<rect x="32.300000" y="10.800000" width="167.400000" height="157.090909"/>
  </clipPath>
</defs><path style="fill: none; stroke: #ff0000; stroke-width: 2.000000; stroke-linejoin: round; stroke-linecap: square;  opacity: 1.000000" clip-path="url(#peb9b5f3c96fdc8f31738a5860debca55)" d="M32.300000 167.890909L63.834269 167.782981L68.195391 167.544252
L71.214629 167.158362L73.562926 166.623514L75.575752 165.910412
L77.253106 165.065175L78.594990 164.176346L79.936874 163.054776
L81.278758 161.654956L82.620641 159.927089L83.962525 157.818019
L85.304409 155.272611L86.646293 152.235605L87.988176 148.653956
L89.330060 144.479632L90.671944 139.672796L92.349299 132.733242
L94.026653 124.741826L95.704008 115.725509L97.716834 103.675067
L100.400601 85.980796L106.774549 42.790743L108.451904 33.006842
L109.793788 26.176612L111.135671 20.428703L112.142084 16.923226
L113.148497 14.170102L113.819439 12.774770L114.490381 11.743483
L115.161323 11.083642L115.832265 10.800001L116.503206 10.894605
L117.174148 11.366772L117.845090 12.213097L118.516032 13.427494
L119.522445 15.919520L120.528858 19.179792L121.535271 23.156950
L122.877154 29.467225L124.554509 38.732152L126.567335 51.374666
L129.586573 72.034556L133.612224 99.399555L135.960521 113.805531
L137.973347 124.741826L139.650701 132.733242L141.328056 139.672796
L143.005411 145.581127L144.347295 149.603170L145.689178 153.043907
L147.031062 155.952910L148.372946 158.384021L149.714830 160.392671
L151.056713 162.033654L152.398597 163.359398L153.740481 164.418698
L155.417836 165.435221L157.095190 166.180106L159.108016 166.803987
L161.456313 167.267951L164.475551 167.599291L168.501202 167.792662
L175.881563 167.880238L199.700000 167.890909L199.700000 167.890909"/>
</g>
<g id="line2d2">
<path style="fill: none; stroke: #0000ff; stroke-width: 2.000000; stroke-linejoin: round; stroke-linecap: square;  opacity: 1.000000" clip-path="url(#peb9b5f3c96fdc8f31738a5860debca55)" d="M32.300000 70.515254L34.312826 69.707340L35.990180 69.291517
L37.332064 69.165873L38.673948 69.240611L40.015832 69.517952
L41.693186 70.132356L43.370541 70.998896L45.718838 72.494218
L49.744489 75.131376L51.421844 75.990590L53.099198 76.583231
L54.441082 76.822798L55.782966 76.830035L57.124850 76.594093
L58.466733 76.115527L59.808617 75.406966L61.485972 74.237321
L63.498798 72.522432L68.530862 68.049627L69.872745 67.174354
L71.214629 66.571589L72.221042 66.333218L73.227455 66.298233
L74.233868 66.477656L75.240281 66.875037L76.246693 67.486019
L77.588577 68.610578L78.930461 70.042381L80.607816 72.155556
L86.310822 79.675584L87.652705 80.964728L88.659118 81.693356
L89.665531 82.181912L90.671944 82.401231L91.678357 82.324979
L92.684770 81.929578L93.691182 81.194172L94.697595 80.100707
L95.704008 78.634163L96.710421 76.782996L97.716834 74.539819
L99.058717 70.936046L100.400601 66.644625L102.077956 60.375132
L104.090782 51.732473L107.445491 35.889625L109.793788 25.296460
L111.135671 20.079810L112.477555 15.819884L113.483968 13.401017
L114.154910 12.205362L114.825852 11.365495L115.496794 10.894561
L116.167735 10.800000L116.838677 11.083309L117.509619 11.740003
L118.180561 12.759751L118.851503 14.126687L119.857916 16.781054
L120.864329 20.079810L122.206212 25.296460L124.219038 34.306714
L129.251102 57.614247L130.928457 64.251907L132.605812 69.926645
L133.947695 73.704416L135.289579 76.782996L136.295992 78.634163
L137.302405 80.100707L138.308818 81.194172L139.315230 81.929578
L140.321643 82.324979L141.328056 82.401231L142.334469 82.181912
L143.340882 81.693356L144.347295 80.964728L145.689178 79.675584
L147.366533 77.673010L150.050301 73.998302L152.734068 70.440489
L154.411423 68.610578L155.753307 67.486019L156.759719 66.875037
L157.766132 66.477656L158.772545 66.298233L159.778958 66.333218
L160.785371 66.571589L162.127255 67.174354L163.469138 68.049627
L165.146493 69.420749L171.520441 74.973796L173.197796 75.959183
L174.539679 76.496914L175.881563 76.794027L177.223447 76.846999
L178.565331 76.663904L179.907214 76.263598L181.584569 75.502219
L183.597395 74.306133L189.635872 70.452270L191.313226 69.729809
L192.655110 69.354314L193.996994 69.177758L195.338878 69.204276
L196.680762 69.425419L198.358116 69.944067L199.700000 70.515254
L199.700000 70.515254"/>
</g>
<g id="mpl_toolkits.axisartist.axis_artist1">
<g id="patch3">
<path style="fill: none; stroke: #000000; stroke-width: 1.000000; stroke-linejoin: round; stroke-linecap: round;  opacity: 1.000000"  d="M32.300000 167.890909L199.700000 167.890909L210.581966 167.890909"/>
<path style="fill: none; stroke: #000000; stroke-width: 1.000000; stroke-linejoin: round; stroke-linecap: round;  opacity: 1.000000"  d="M205.781966 165.490909L210.581966 167.890909L205.781966 170.290909"/>
</g>
<defs><path id="m30e32995789d870ad79a2e54c91cf9c6" d="M0.000000 0.000000L0.000000 -4.000000"/></defs>
<g ><use style="fill: none; stroke: #000000; stroke-width: 0.500000; stroke-linejoin: round; stroke-linecap: butt;  opacity: 1.000000" xlink:href="#m30e32995789d870ad79a2e54c91cf9c6" x="60.200000" y="167.890909"/>
<use style="fill: none; stroke: #000000; stroke-width: 0.500000; stroke-linejoin: round; stroke-linecap: butt;  opacity: 1.000000" xlink:href="#m30e32995789d870ad79a2e54c91cf9c6" x="60.200000" y="167.890909"/>
</g><g ><use style="fill: none; stroke: #000000; stroke-width: 0.500000; stroke-linejoin: round; stroke-linecap: butt;  opacity: 1.000000" xlink:href="#m30e32995789d870ad79a2e54c91cf9c6" x="116.000000" y="167.890909"/>
<use style="fill: none; stroke: #000000; stroke-width: 0.500000; stroke-linejoin: round; stroke-linecap: butt;  opacity: 1.000000" xlink:href="#m30e32995789d870ad79a2e54c91cf9c6" x="116.000000" y="167.890909"/>
</g><g ><use style="fill: none; stroke: #000000; stroke-width: 0.500000; stroke-linejoin: round; stroke-linecap: butt;  opacity: 1.000000" xlink:href="#m30e32995789d870ad79a2e54c91cf9c6" x="171.800000" y="167.890909"/>
<use style="fill: none; stroke: #000000; stroke-width: 0.500000; stroke-linejoin: round; stroke-linecap: butt;  opacity: 1.000000" xlink:href="#m30e32995789d870ad79a2e54c91cf9c6" x="171.800000" y="167.890909"/>
</g><g id="text1">
<defs>
<path id="c_6a8d56c819c37117ab4cf023bec22a5a" d="M10.593750 -35.500000l62.593750 0.000000l0.000000 8.296875l-62.593750 0.000000z"/>
<path id="c_42baa63129a918535c52adb20d687ea7" d="M12.406250 -8.296875l16.109375 0.000000l0.000000 -55.625000l-17.531250 3.515625l0.000000 -8.984375l17.437500 -3.515625l9.859375 0.000000l0.000000 64.609375l16.109375 0.000000l0.000000 8.296875l-41.984375 0.000000z"/>
<path id="c_7a2040fe3b94fcd41d0a72c84e93b115" d="M31.781250 -66.406250q-7.609375 0.000000 -11.453125 7.500000q-3.828125 7.484375 -3.828125 22.531250q0.000000 14.984375 3.828125 22.484375q3.843750 7.500000 11.453125 7.500000q7.671875 0.000000 11.500000 -7.500000q3.843750 -7.500000 3.843750 -22.484375q0.000000 -15.046875 -3.843750 -22.531250q-3.828125 -7.500000 -11.500000 -7.500000M31.781250 -74.218750q12.265625 0.000000 18.734375 9.703125q6.468750 9.687500 6.468750 28.140625q0.000000 18.406250 -6.468750 28.109375q-6.468750 9.687500 -18.734375 9.687500q-12.250000 0.000000 -18.718750 -9.687500q-6.468750 -9.703125 -6.468750 -28.109375q0.000000 -18.453125 6.468750 -28.140625q6.468750 -9.703125 18.718750 -9.703125"/>
</defs>
<g style="fill: #000000; opacity: 1.000000" transform="translate(48.559375,180.797159)scale(0.120000)">
<use xlink:href="#c_6a8d56c819c37117ab4cf023bec22a5a"/>
<use xlink:href="#c_42baa63129a918535c52adb20d687ea7" x="83.789062"/>
<use xlink:href="#c_7a2040fe3b94fcd41d0a72c84e93b115" x="147.412109"/>
</g>
</g>
<g id="text2">
<g style="fill: #000000; opacity: 1.000000" transform="translate(112.976563,180.797159)scale(0.120000)">
<use xlink:href="#c_7a2040fe3b94fcd41d0a72c84e93b115"/>
</g>
</g>
<g id="text3">
<g style="fill: #000000; opacity: 1.000000" transform="translate(165.214063,180.797159)scale(0.120000)">
<use xlink:href="#c_42baa63129a918535c52adb20d687ea7"/>
<use xlink:href="#c_7a2040fe3b94fcd41d0a72c84e93b115" x="63.623047"/>
</g>
</g>
</g>
<g id="mpl_toolkits.axisartist.axis_artist2">
<g id="patch4">
<path style="fill: none; stroke: #000000; stroke-width: 1.000000; stroke-linejoin: round; stroke-linecap: round;  opacity: 1.000000"  d="M32.300000 167.890909L32.300000 10.800000L32.300000 -0.081966"/>
<path style="fill: none; stroke: #000000; stroke-width: 1.000000; stroke-linejoin: round; stroke-linecap: round;  opacity: 1.000000"  d="M29.900000 4.718034L32.300000 -0.081966L34.700000 4.718034"/>
</g>
<defs><path id="m3400efa6b1638b3fea9e19e898273957" d="M0.000000 0.000000L4.000000 0.000000"/></defs>
<g ><use style="fill: none; stroke: #000000; stroke-width: 0.500000; stroke-linejoin: round; stroke-linecap: butt;  opacity: 1.000000" xlink:href="#m3400efa6b1638b3fea9e19e898273957" x="32.300000" y="167.890910"/>
<use style="fill: none; stroke: #000000; stroke-width: 0.500000; stroke-linejoin: round; stroke-linecap: butt;  opacity: 1.000000" xlink:href="#m3400efa6b1638b3fea9e19e898273957" x="32.300000" y="167.890910"/>
</g><g ><use style="fill: none; stroke: #000000; stroke-width: 0.500000; stroke-linejoin: round; stroke-linecap: butt;  opacity: 1.000000" xlink:href="#m3400efa6b1638b3fea9e19e898273957" x="32.300000" y="120.247096"/>
<use style="fill: none; stroke: #000000; stroke-width: 0.500000; stroke-linejoin: round; stroke-linecap: butt;  opacity: 1.000000" xlink:href="#m3400efa6b1638b3fea9e19e898273957" x="32.300000" y="120.247096"/>
</g><g ><use style="fill: none; stroke: #000000; stroke-width: 0.500000; stroke-linejoin: round; stroke-linecap: butt;  opacity: 1.000000" xlink:href="#m3400efa6b1638b3fea9e19e898273957" x="32.300000" y="72.603282"/>
<use style="fill: none; stroke: #000000; stroke-width: 0.500000; stroke-linejoin: round; stroke-linecap: butt;  opacity: 1.000000" xlink:href="#m3400efa6b1638b3fea9e19e898273957" x="32.300000" y="72.603282"/>
</g><g ><use style="fill: none; stroke: #000000; stroke-width: 0.500000; stroke-linejoin: round; stroke-linecap: butt;  opacity: 1.000000" xlink:href="#m3400efa6b1638b3fea9e19e898273957" x="32.300000" y="24.959468"/>
<use style="fill: none; stroke: #000000; stroke-width: 0.500000; stroke-linejoin: round; stroke-linecap: butt;  opacity: 1.000000" xlink:href="#m3400efa6b1638b3fea9e19e898273957" x="32.300000" y="24.959468"/>
</g><g id="text4">
<defs>
<path id="c_ed3e21196fb739f392806f09ca0594ef" d="M10.687500 -12.406250l10.312500 0.000000l0.000000 12.406250l-10.312500 0.000000z"/>
</defs>
<g style="fill: #000000; opacity: 1.000000" transform="translate(10.800000,172.258098)scale(0.120000)">
<use xlink:href="#c_7a2040fe3b94fcd41d0a72c84e93b115"/>
<use xlink:href="#c_ed3e21196fb739f392806f09ca0594ef" x="63.623047"/>
<use xlink:href="#c_7a2040fe3b94fcd41d0a72c84e93b115" x="95.410156"/>
</g>
</g>
<g id="text5">
<defs>
<path id="c_1260a2df50f305f3db244e29828f968e" d="M10.796875 -72.906250l38.718750 0.000000l0.000000 8.312500l-29.687500 0.000000l0.000000 17.859375q2.140625 -0.734375 4.281250 -1.093750q2.156250 -0.359375 4.312500 -0.359375q12.203125 0.000000 19.328125 6.687500q7.140625 6.687500 7.140625 18.109375q0.000000 11.765625 -7.328125 18.296875q-7.328125 6.515625 -20.656250 6.515625q-4.593750 0.000000 -9.359375 -0.781250q-4.750000 -0.781250 -9.828125 -2.343750l0.000000 -9.921875q4.390625 2.390625 9.078125 3.562500q4.687500 1.171875 9.906250 1.171875q8.453125 0.000000 13.375000 -4.437500q4.937500 -4.437500 4.937500 -12.062500q0.000000 -7.609375 -4.937500 -12.046875q-4.921875 -4.453125 -13.375000 -4.453125q-3.953125 0.000000 -7.890625 0.875000q-3.921875 0.875000 -8.015625 2.734375z"/>
</defs>
<g style="fill: #000000; opacity: 1.000000" transform="translate(11.050000,124.614284)scale(0.120000)">
<use xlink:href="#c_7a2040fe3b94fcd41d0a72c84e93b115"/>
<use xlink:href="#c_ed3e21196fb739f392806f09ca0594ef" x="63.623047"/>
<use xlink:href="#c_1260a2df50f305f3db244e29828f968e" x="95.410156"/>
</g>
</g>
<g id="text6">
<g style="fill: #000000; opacity: 1.000000" transform="translate(11.315625,76.970470)scale(0.120000)">
<use xlink:href="#c_42baa63129a918535c52adb20d687ea7"/>
<use xlink:href="#c_ed3e21196fb739f392806f09ca0594ef" x="63.623047"/>
<use xlink:href="#c_7a2040fe3b94fcd41d0a72c84e93b115" x="95.410156"/>
</g>
</g>
<g id="text7">
<g style="fill: #000000; opacity: 1.000000" transform="translate(11.565625,29.248531)scale(0.120000)">
<use xlink:href="#c_42baa63129a918535c52adb20d687ea7"/>
<use xlink:href="#c_ed3e21196fb739f392806f09ca0594ef" x="63.623047"/>
<use xlink:href="#c_1260a2df50f305f3db244e29828f968e" x="95.410156"/>
</g>
</g>
</g>
</g>
<g id="axes2">
<g id="patch5">
<path style="fill: #ffffff; opacity: 1.000000"  d="M32.300000 356.400000L199.700000 356.400000L199.700000 199.309091
L32.300000 199.309091z"/>
</g>
<g id="line2d3">
<defs>
  <clipPath id="p8cd3058cca3b9c92fb4d59cedde2e910">
<rect x="32.300000" y="199.309091" width="167.400000" height="157.090909"/>
  </clipPath>
</defs><path style="fill: none; stroke: #ff0000; stroke-width: 2.000000; stroke-linejoin: round; stroke-linecap: square;  opacity: 1.000000" clip-path="url(#p8cd3058cca3b9c92fb4d59cedde2e910)" d="M32.300000 356.400000L94.697595 356.292460L96.374950 356.076154
L97.716834 355.667010L98.723246 355.097777L99.394188 354.524019
L100.065130 353.736256L100.736072 352.671985L101.407014 351.257387
L102.077956 349.407844L102.748898 347.029571L103.419840 344.022615
L104.090782 340.285405L105.097194 333.101276L106.103607 323.792517
L107.110020 312.225175L108.451904 293.448128L110.129259 266.038813
L112.477555 227.629690L113.483968 214.429365L114.154910 207.599273
L114.825852 202.679196L115.496794 199.875865L115.832265 199.309094
L116.167735 199.309094L116.503206 199.875865L116.838677 201.003281
L117.509619 204.885668L118.180561 210.791524L119.186974 222.890224
L120.528858 243.340943L124.219038 303.283285L125.560922 320.189082
L126.567335 330.244467L127.573747 338.112260L128.580160 344.022615
L129.586573 348.290947L130.592986 351.257387L131.263928 352.671985
L131.934870 353.736256L132.941283 354.834180L133.947695 355.509029
L134.954108 355.909253L136.295992 356.189360L138.308818 356.346854
L143.005411 356.398711L199.700000 356.400000L199.700000 356.400000"/>
</g>
<g id="line2d4">
<path style="fill: none; stroke: #0000ff; stroke-width: 2.000000; stroke-linejoin: round; stroke-linecap: square;  opacity: 1.000000" clip-path="url(#p8cd3058cca3b9c92fb4d59cedde2e910)" d="M32.300000 347.488576L34.983768 346.921574L36.996593 346.729126
L38.673948 346.765367L40.686774 347.048501L43.035070 347.648431
L51.421844 350.102809L53.770140 350.401131L55.782966 350.440146
L57.795792 350.263088L59.808617 349.859021L61.821443 349.225656
L64.169739 348.224594L70.543687 345.266924L71.885571 344.970079
L73.227455 344.907377L74.569339 345.101287L75.911222 345.544414
L77.588577 346.390231L79.936874 347.898344L83.291583 350.053498
L85.304409 351.072437L86.981764 351.699172L88.659118 352.112399
L90.336473 352.307471L92.013828 352.270008L93.355711 352.047802
L94.697595 351.614569L96.039479 350.907238L97.045892 350.139092
L98.052305 349.102460L99.058717 347.717149L100.065130 345.877371
L101.071543 343.446591L102.077956 340.253517L103.084369 336.091254
L104.090782 330.722704L105.097194 323.896267L106.103607 315.376162
L107.110020 304.990481L108.451904 288.194844L110.129259 263.302086
L112.813026 222.537339L113.819439 210.706916L114.490381 204.865410
L115.161323 201.001299L115.496794 199.875607L115.832265 199.309091
L116.167735 199.309091L116.503206 199.875607L116.838677 201.001299
L117.509619 204.865410L118.180561 210.706916L119.186974 222.537339
L120.528858 242.127046L123.548096 288.194844L124.889980 304.990481
L125.896393 315.376162L126.902806 323.896267L127.909218 330.722704
L128.915631 336.091254L129.922044 340.253517L130.928457 343.446591
L131.934870 345.877371L132.941283 347.717149L133.947695 349.102460
L134.954108 350.139092L135.960521 350.907238L137.302405 351.614569
L138.644289 352.047802L139.986172 352.270008L141.663527 352.307471
L143.340882 352.112399L145.018236 351.699172L146.695591 351.072437
L148.708417 350.053498L151.056713 348.577687L154.746894 346.199835
L156.424248 345.411827L157.766132 345.028624L159.108016 344.899390
L160.449900 345.023808L161.791784 345.372688L163.469138 346.046060
L166.823848 347.730505L169.507615 348.965921L171.520441 349.673038
L173.533267 350.154000L175.546092 350.405769L177.558918 350.437303
L179.571743 350.262279L181.920040 349.822404L184.603808 349.071488
L191.313226 347.048501L193.326052 346.765367L195.003407 346.729126
L197.016232 346.921574L199.364529 347.403935L199.700000 347.488576
L199.700000 347.488576"/>
</g>
<g id="mpl_toolkits.axisartist.axis_artist3">
<g id="patch6">
<path style="fill: none; stroke: #000000; stroke-width: 1.000000; stroke-linejoin: round; stroke-linecap: round;  opacity: 1.000000"  d="M32.300000 356.400000L199.700000 356.400000L210.581966 356.400000"/>
<path style="fill: none; stroke: #000000; stroke-width: 1.000000; stroke-linejoin: round; stroke-linecap: round;  opacity: 1.000000"  d="M205.781966 354.000000L210.581966 356.400000L205.781966 358.800000"/>
</g>
<g ><use style="fill: none; stroke: #000000; stroke-width: 0.500000; stroke-linejoin: round; stroke-linecap: butt;  opacity: 1.000000" xlink:href="#m30e32995789d870ad79a2e54c91cf9c6" x="60.200000" y="356.400000"/>
<use style="fill: none; stroke: #000000; stroke-width: 0.500000; stroke-linejoin: round; stroke-linecap: butt;  opacity: 1.000000" xlink:href="#m30e32995789d870ad79a2e54c91cf9c6" x="60.200000" y="356.400000"/>
</g><g ><use style="fill: none; stroke: #000000; stroke-width: 0.500000; stroke-linejoin: round; stroke-linecap: butt;  opacity: 1.000000" xlink:href="#m30e32995789d870ad79a2e54c91cf9c6" x="116.000000" y="356.400000"/>
<use style="fill: none; stroke: #000000; stroke-width: 0.500000; stroke-linejoin: round; stroke-linecap: butt;  opacity: 1.000000" xlink:href="#m30e32995789d870ad79a2e54c91cf9c6" x="116.000000" y="356.400000"/>
</g><g ><use style="fill: none; stroke: #000000; stroke-width: 0.500000; stroke-linejoin: round; stroke-linecap: butt;  opacity: 1.000000" xlink:href="#m30e32995789d870ad79a2e54c91cf9c6" x="171.800000" y="356.400000"/>
<use style="fill: none; stroke: #000000; stroke-width: 0.500000; stroke-linejoin: round; stroke-linecap: butt;  opacity: 1.000000" xlink:href="#m30e32995789d870ad79a2e54c91cf9c6" x="171.800000" y="356.400000"/>
</g><g id="text8">
<g style="fill: #000000; opacity: 1.000000" transform="translate(48.559375,369.306250)scale(0.120000)">
<use xlink:href="#c_6a8d56c819c37117ab4cf023bec22a5a"/>
<use xlink:href="#c_42baa63129a918535c52adb20d687ea7" x="83.789062"/>
<use xlink:href="#c_7a2040fe3b94fcd41d0a72c84e93b115" x="147.412109"/>
</g>
</g>
<g id="text9">
<g style="fill: #000000; opacity: 1.000000" transform="translate(112.976563,369.306250)scale(0.120000)">
<use xlink:href="#c_7a2040fe3b94fcd41d0a72c84e93b115"/>
</g>
</g>
<g id="text10">
<g style="fill: #000000; opacity: 1.000000" transform="translate(165.214063,369.306250)scale(0.120000)">
<use xlink:href="#c_42baa63129a918535c52adb20d687ea7"/>
<use xlink:href="#c_7a2040fe3b94fcd41d0a72c84e93b115" x="63.623047"/>
</g>
</g>
</g>
<g id="mpl_toolkits.axisartist.axis_artist4">
<g id="patch7">
<path style="fill: none; stroke: #000000; stroke-width: 1.000000; stroke-linejoin: round; stroke-linecap: round;  opacity: 1.000000"  d="M32.300000 356.400000L32.300000 199.309091L32.300000 188.427125"/>
<path style="fill: none; stroke: #000000; stroke-width: 1.000000; stroke-linejoin: round; stroke-linecap: round;  opacity: 1.000000"  d="M29.900000 193.227125L32.300000 188.427125L34.700000 193.227125"/>
</g>
<g ><use style="fill: none; stroke: #000000; stroke-width: 0.500000; stroke-linejoin: round; stroke-linecap: butt;  opacity: 1.000000" xlink:href="#m3400efa6b1638b3fea9e19e898273957" x="32.300000" y="356.400000"/>
<use style="fill: none; stroke: #000000; stroke-width: 0.500000; stroke-linejoin: round; stroke-linecap: butt;  opacity: 1.000000" xlink:href="#m3400efa6b1638b3fea9e19e898273957" x="32.300000" y="356.400000"/>
</g><g ><use style="fill: none; stroke: #000000; stroke-width: 0.500000; stroke-linejoin: round; stroke-linecap: butt;  opacity: 1.000000" xlink:href="#m3400efa6b1638b3fea9e19e898273957" x="32.300000" y="317.276850"/>
<use style="fill: none; stroke: #000000; stroke-width: 0.500000; stroke-linejoin: round; stroke-linecap: butt;  opacity: 1.000000" xlink:href="#m3400efa6b1638b3fea9e19e898273957" x="32.300000" y="317.276850"/>
</g><g ><use style="fill: none; stroke: #000000; stroke-width: 0.500000; stroke-linejoin: round; stroke-linecap: butt;  opacity: 1.000000" xlink:href="#m3400efa6b1638b3fea9e19e898273957" x="32.300000" y="278.153699"/>
<use style="fill: none; stroke: #000000; stroke-width: 0.500000; stroke-linejoin: round; stroke-linecap: butt;  opacity: 1.000000" xlink:href="#m3400efa6b1638b3fea9e19e898273957" x="32.300000" y="278.153699"/>
</g><g ><use style="fill: none; stroke: #000000; stroke-width: 0.500000; stroke-linejoin: round; stroke-linecap: butt;  opacity: 1.000000" xlink:href="#m3400efa6b1638b3fea9e19e898273957" x="32.300000" y="239.030549"/>
<use style="fill: none; stroke: #000000; stroke-width: 0.500000; stroke-linejoin: round; stroke-linecap: butt;  opacity: 1.000000" xlink:href="#m3400efa6b1638b3fea9e19e898273957" x="32.300000" y="239.030549"/>
</g><g ><use style="fill: none; stroke: #000000; stroke-width: 0.500000; stroke-linejoin: round; stroke-linecap: butt;  opacity: 1.000000" xlink:href="#m3400efa6b1638b3fea9e19e898273957" x="32.300000" y="199.907398"/>
<use style="fill: none; stroke: #000000; stroke-width: 0.500000; stroke-linejoin: round; stroke-linecap: butt;  opacity: 1.000000" xlink:href="#m3400efa6b1638b3fea9e19e898273957" x="32.300000" y="199.907398"/>
</g><g id="text11">
<g style="fill: #000000; opacity: 1.000000" transform="translate(22.253125,360.767187)scale(0.120000)">
<use xlink:href="#c_7a2040fe3b94fcd41d0a72c84e93b115"/>
</g>
</g>
<g id="text12">
<g style="fill: #000000; opacity: 1.000000" transform="translate(22.628125,321.565912)scale(0.120000)">
<use xlink:href="#c_1260a2df50f305f3db244e29828f968e"/>
</g>
</g>
<g id="text13">
<g style="fill: #000000; opacity: 1.000000" transform="translate(15.128125,282.520887)scale(0.120000)">
<use xlink:href="#c_42baa63129a918535c52adb20d687ea7"/>
<use xlink:href="#c_7a2040fe3b94fcd41d0a72c84e93b115" x="63.623047"/>
</g>
</g>
<g id="text14">
<g style="fill: #000000; opacity: 1.000000" transform="translate(15.378125,243.319611)scale(0.120000)">
<use xlink:href="#c_42baa63129a918535c52adb20d687ea7"/>
<use xlink:href="#c_1260a2df50f305f3db244e29828f968e" x="63.623047"/>
</g>
</g>
<g id="text15">
<defs>
<path id="c_ed3f3ed3ebfbd18bcb9c012009a68ad1" d="M19.187500 -8.296875l34.421875 0.000000l0.000000 8.296875l-46.281250 0.000000l0.000000 -8.296875q5.609375 -5.812500 15.296875 -15.593750q9.703125 -9.796875 12.187500 -12.640625q4.734375 -5.312500 6.609375 -9.000000q1.890625 -3.687500 1.890625 -7.250000q0.000000 -5.812500 -4.078125 -9.468750q-4.078125 -3.671875 -10.625000 -3.671875q-4.640625 0.000000 -9.796875 1.609375q-5.140625 1.609375 -11.000000 4.890625l0.000000 -9.968750q5.953125 -2.390625 11.125000 -3.609375q5.187500 -1.218750 9.484375 -1.218750q11.328125 0.000000 18.062500 5.671875q6.734375 5.656250 6.734375 15.125000q0.000000 4.500000 -1.687500 8.531250q-1.671875 4.015625 -6.125000 9.484375q-1.218750 1.421875 -7.765625 8.187500q-6.531250 6.765625 -18.453125 18.921875"/>
</defs>
<g style="fill: #000000; opacity: 1.000000" transform="translate(14.690625,204.274586)scale(0.120000)">
<use xlink:href="#c_ed3f3ed3ebfbd18bcb9c012009a68ad1"/>
<use xlink:href="#c_7a2040fe3b94fcd41d0a72c84e93b115" x="63.623047"/>
</g>
</g>
</g>
</g>
</g>
</svg>
